<?xml version="1.0" standalone="no"?>
<!DOCTYPE svg PUBLIC "-//W3C//DTD SVG 20010904//EN"
 "http://www.w3.org/TR/2001/REC-SVG-20010904/DTD/svg10.dtd">
<svg version="1.0" xmlns="http://www.w3.org/2000/svg"
 width="700.000000pt" height="700.000000pt" viewBox="0 0 700.000000 700.000000"
 preserveAspectRatio="xMidYMid meet">
<metadata>
Created by potrace 1.11, written by Peter Selinger 2001-2013
</metadata>
<g transform="translate(0.000000,700.000000) scale(0.100000,-0.100000)"
fill="#000000" stroke="none">
<path d="M0 3500 l0 -3500 3500 0 3500 0 0 3500 0 3500 -3500 0 -3500 0 0
-3500z m2835 1999 c81 -21 120 -77 460 -660 l205 -351 0 -469 c0 -258 -3 -469
-7 -469 -5 1 -141 231 -303 512 -162 281 -311 536 -330 567 l-35 56 -6 -100
c-4 -55 -7 -710 -8 -1456 l-1 -1357 178 -6 c244 -9 474 -23 495 -31 15 -7 17
-27 17 -225 0 -198 -2 -219 -17 -225 -47 -20 -1257 -34 -1396 -16 -90 12 -137
43 -172 115 -22 45 -27 68 -27 136 0 149 53 207 207 230 39 5 100 10 136 10
l66 0 7 61 c3 34 6 765 6 1624 l0 1562 -163 7 c-89 4 -193 13 -230 21 -155 32
-215 108 -205 256 11 152 95 204 348 220 163 9 724 1 775 -12z m2216 -8 c89
-56 114 -114 107 -252 -5 -97 -23 -140 -77 -176 -47 -32 -90 -42 -208 -49
l-103 -7 -1 -656 c-3 -1693 -15 -3036 -28 -3069 -7 -18 -26 -39 -43 -48 -67
-35 -337 -40 -415 -8 -48 19 -100 103 -576 925 l-207 357 0 448 c0 247 4 455
9 462 9 15 54 -61 491 -813 127 -220 235 -404 239 -408 16 -17 21 339 21 1555
l0 1258 -200 0 c-453 0 -544 39 -557 237 -9 131 19 193 105 234 63 31 151 35
843 37 l555 2 45 -29z"/>
</g>
</svg>
